<svg width="20" height="20" viewBox="0 0 20 20" fill="none" xmlns="http://www.w3.org/2000/svg">
<path d="M9.25391 5.20831C8.82126 5.20831 8.39833 5.08002 8.0386 4.83965C7.67886 4.59929 7.39849 4.25765 7.23292 3.85793C7.06735 3.45822 7.02403 3.01839 7.10844 2.59405C7.19284 2.16972 7.40118 1.77995 7.70711 1.47402C8.01304 1.16809 8.40281 0.959751 8.82715 0.875346C9.25148 0.790941 9.69131 0.834261 10.091 0.999827C10.4907 1.16539 10.8324 1.44577 11.0727 1.8055C11.3131 2.16524 11.4414 2.58817 11.4414 3.02081C11.4414 3.60098 11.2109 4.15737 10.8007 4.56761C10.3905 4.97785 9.83407 5.20831 9.25391 5.20831ZM9.25391 2.08331C9.06849 2.08331 8.88723 2.1383 8.73306 2.24131C8.57889 2.34433 8.45873 2.49074 8.38777 2.66205C8.31681 2.83335 8.29825 3.02185 8.33442 3.20371C8.3706 3.38557 8.45988 3.55262 8.59099 3.68373C8.72211 3.81484 8.88915 3.90413 9.07101 3.9403C9.25287 3.97647 9.44137 3.95791 9.61267 3.88695C9.78398 3.81599 9.9304 3.69583 10.0334 3.54166C10.1364 3.38749 10.1914 3.20623 10.1914 3.02081C10.1914 2.77217 10.0926 2.53372 9.91682 2.3579C9.741 2.18209 9.50255 2.08331 9.25391 2.08331Z" fill="#919EAB"/>
<path d="M9.68101 16.2862C9.17368 17.7216 7.80476 18.75 6.19565 18.75C4.1546 18.75 2.5 17.0954 2.5 15.0543C2.5 13.5393 3.41167 12.2371 4.71634 11.6666" stroke="#919EAB" stroke-width="2" stroke-linecap="round"/>
<path d="M14.5658 9.99996H10.8158V8.33329C10.8158 7.41282 10.0696 6.66663 9.14909 6.66663V6.66663C8.22861 6.66663 7.48242 7.41282 7.48242 8.33329V12.1212C7.48242 12.7906 8.02511 13.3333 8.69454 13.3333H14.1491L16.2324 17.9166L18.3158 17.0833" stroke="#919EAB" stroke-width="2" stroke-linecap="round" stroke-linejoin="round"/>
</svg>
