<svg width="20" height="20" viewBox="0 0 20 20" fill="none" xmlns="http://www.w3.org/2000/svg">
<g clip-path="url(#clip0_2795_1285)">
<path d="M13.333 1.66667V6.66667H18.333" stroke="#919EAB" stroke-width="2" stroke-linecap="round" stroke-linejoin="round"/>
<path d="M19.1663 0.833334L13.333 6.66667" stroke="#919EAB" stroke-width="2" stroke-linecap="round" stroke-linejoin="round"/>
<path d="M18.3332 14.1V16.6C18.3341 16.8321 18.2866 17.0618 18.1936 17.2745C18.1006 17.4871 17.9643 17.678 17.7933 17.8349C17.6222 17.9918 17.4203 18.1112 17.2005 18.1856C16.9806 18.2599 16.7477 18.2876 16.5165 18.2667C13.9522 17.988 11.489 17.1118 9.32486 15.7083C7.31139 14.4289 5.60431 12.7218 4.32486 10.7083C2.91651 8.53434 2.04007 6.05916 1.76653 3.48333C1.7457 3.25289 1.77309 3.02063 1.84695 2.80135C1.9208 2.58207 2.03951 2.38057 2.1955 2.20968C2.3515 2.03879 2.54137 1.90226 2.75302 1.80877C2.96468 1.71528 3.19348 1.66688 3.42486 1.66667H5.92486C6.32928 1.66269 6.72136 1.8059 7.028 2.06961C7.33464 2.33332 7.53493 2.69954 7.59153 3.1C7.69705 3.90006 7.89274 4.68561 8.17486 5.44167C8.28698 5.73994 8.31125 6.0641 8.24478 6.37573C8.17832 6.68737 8.02392 6.97343 7.79986 7.2L6.74153 8.25833C7.92783 10.3446 9.65524 12.072 11.7415 13.2583L12.7999 12.2C13.0264 11.9759 13.3125 11.8215 13.6241 11.7551C13.9358 11.6886 14.2599 11.7129 14.5582 11.825C15.3143 12.1071 16.0998 12.3028 16.8999 12.4083C17.3047 12.4654 17.6744 12.6693 17.9386 12.9812C18.2029 13.2932 18.3433 13.6913 18.3332 14.1Z" stroke="#919EAB" stroke-width="2" stroke-linecap="round" stroke-linejoin="round"/>
</g>
<defs>
<clipPath id="clip0_2795_1285">
<rect width="20" height="20" fill="white"/>
</clipPath>
</defs>
</svg>
