<svg width="20" height="20" viewBox="0 0 20 20" fill="none" xmlns="http://www.w3.org/2000/svg">
<g clip-path="url(#clip0_2795_1311)">
<path d="M6.66699 10H6.67949" stroke="#919EAB" stroke-width="2" stroke-linecap="round" stroke-linejoin="round"/>
<path d="M8.82969 6.66664C9.63975 6.66663 9.84335 6.66662 10.417 6.66662C11.5777 6.66663 11.667 6.66663 11.667 6.66663M4.16699 5.8333C4.58366 5.8333 5.49636 6.07092 5.81382 7.02142C4.82358 7.46465 4.07058 8.28889 3.67067 9.29749C3.26046 10.3321 2.79766 11.4013 1.68472 11.4013V11.4013C1.56381 11.4013 2.10092 13.8177 2.10092 13.8177L4.18192 14.0221C4.70398 14.7705 5.62037 15.5337 6.56779 15.9209C6.56779 15.9209 6.94477 17.1739 6.94477 17.4872C7.32175 17.4872 8.41805 17.516 8.45271 17.4872V17.4872C9.04493 16.9951 9.37143 16.2342 10.1414 16.2342H11.8456L12.2225 17.4872C12.5995 17.4872 14.1075 17.4872 14.1075 17.4872L14.4845 15.7851C16.2656 15.0165 17.5003 13.3426 17.5003 11.4013C17.5003 9.21597 16.3291 7.97628 15.0003 7.31847" stroke="#919EAB" stroke-width="2" stroke-linecap="round" stroke-linejoin="round"/>
<path d="M17.4993 9.99462C17.4993 9.99462 18.4146 9.82284 19.1582 8.7351" stroke="#919EAB" stroke-width="2" stroke-miterlimit="10" stroke-linecap="round"/>
<path d="M12.083 6.66687C12.3446 6.31864 12.4997 5.88576 12.4997 5.41666C12.4997 4.26607 11.5669 3.33333 10.4163 3.33333C9.26575 3.33333 8.33301 4.26607 8.33301 5.41666C8.33301 5.88576 8.48805 6.31864 8.74967 6.66687" stroke="#919EAB" stroke-width="2" stroke-linecap="round"/>
</g>
<defs>
<clipPath id="clip0_2795_1311">
<rect width="20" height="20" fill="white"/>
</clipPath>
</defs>
</svg>
